<?xml version="1.0" standalone="no"?>
<!DOCTYPE svg PUBLIC "-//W3C//DTD SVG 20010904//EN"
 "http://www.w3.org/TR/2001/REC-SVG-20010904/DTD/svg10.dtd">
<svg version="1.0" xmlns="http://www.w3.org/2000/svg"
 width="816.000000pt" height="816.000000pt" viewBox="0 0 816.000000 816.000000"
 preserveAspectRatio="xMidYMid meet">
<metadata>
Created by potrace 1.11, written by Peter Selinger 2001-2013
</metadata>
<g transform="translate(0.000000,816.000000) scale(0.100000,-0.100000)"
fill="#000000" stroke="none">
<path d="M1575 6090 c-154 -19 -343 -110 -441 -212 -68 -70 -127 -174 -154
-273 -30 -111 -44 -518 -36 -1070 6 -435 14 -553 46 -691 57 -243 202 -383
470 -454 121 -32 380 -40 499 -15 238 48 430 183 514 360 53 110 77 291 77
571 l0 174 -339 0 -340 0 -3 -292 c-3 -259 -5 -297 -21 -326 -20 -37 -51 -52
-107 -52 -52 0 -89 32 -102 90 -14 63 -22 1305 -10 1507 13 216 28 242 138
243 32 0 46 -6 70 -31 l29 -30 3 -340 3 -339 339 0 340 0 0 233 c0 439 -38
595 -179 736 -150 149 -352 222 -611 220 -69 -1 -152 -5 -185 -9z"/>
<path d="M0 4735 l0 -1315 340 0 340 0 0 1315 0 1315 -340 0 -340 0 0 -1315z"/>
<path d="M2680 5785 l0 -265 205 0 205 0 0 -1050 0 -1050 340 0 340 0 0 1050
0 1050 205 0 205 0 0 265 0 265 -750 0 -750 0 0 -265z"/>
<path d="M7150 5294 c-215 -41 -351 -111 -468 -239 -117 -128 -155 -268 -172
-628 -12 -261 -12 -997 0 -1242 11 -205 22 -274 64 -374 65 -160 172 -276 318
-346 140 -68 205 -79 453 -79 189 -1 219 2 294 22 262 72 439 257 502 527 17
71 25 1549 9 1698 -13 132 -46 241 -100 327 -92 150 -211 233 -430 300 -98 30
-116 32 -275 35 -93 2 -181 1 -195 -1z m262 -463 l33 -29 3 -918 c2 -638 -1
-934 -8 -971 -15 -68 -44 -93 -111 -93 -40 0 -53 5 -72 26 -12 14 -26 40 -30
57 -13 48 -20 1494 -9 1699 8 154 12 181 31 212 23 37 35 43 93 45 28 1 46 -6
70 -28z"/>
<path d="M3942 4633 c-7 -346 -12 -667 -12 -715 l0 -88 349 0 349 0 3 83 c4
91 22 127 72 148 42 18 108 5 134 -26 42 -48 44 -80 41 -629 l-3 -525 -29 -30
c-25 -26 -37 -31 -78 -31 -111 0 -128 40 -139 340 -4 124 -8 249 -8 278 l-1
52 -355 0 -355 0 0 -42 c0 -123 22 -425 35 -499 52 -279 193 -435 470 -522
125 -39 228 -50 409 -45 129 5 181 11 263 32 289 74 456 264 492 563 6 50 11
269 11 512 0 459 -7 551 -56 693 -74 219 -244 327 -510 328 -162 0 -281 -45
-386 -148 l-48 -46 0 247 0 247 430 0 430 0 0 225 0 225 -748 0 -748 0 -12
-627z"/>
<path d="M0 2565 l0 -495 105 0 105 0 0 330 c0 182 3 330 8 330 4 0 27 -138
51 -307 23 -170 45 -318 48 -330 5 -21 11 -23 77 -23 l72 0 44 335 c25 184 48
335 52 335 5 0 8 -151 8 -335 l0 -335 105 0 105 0 0 495 0 495 -160 0 -159 0
-6 -32 c-3 -18 -14 -107 -25 -198 -25 -204 -29 -230 -38 -230 -4 0 -20 91 -36
203 -15 111 -30 214 -33 230 l-5 27 -159 0 -159 0 0 -495z"/>
<path d="M900 2565 l0 -495 215 0 215 0 0 100 0 100 -95 0 -95 0 0 105 0 105
80 0 80 0 0 95 0 95 -80 0 -80 0 0 95 0 95 85 0 85 0 0 100 0 100 -205 0 -205
0 0 -495z"/>
<path d="M1420 2565 l0 -495 215 0 215 0 0 100 0 100 -95 0 -95 0 0 105 0 105
80 0 80 0 0 95 0 95 -80 0 -80 0 0 95 0 95 85 0 85 0 0 100 0 100 -205 0 -205
0 0 -495z"/>
<path d="M1890 2960 l0 -100 80 0 80 0 0 -395 0 -395 120 0 120 0 0 395 0 395
80 0 80 0 0 100 0 100 -280 0 -280 0 0 -100z"/>
<path d="M2512 2653 c5 -450 5 -453 70 -520 52 -53 119 -77 223 -78 79 0 97 4
146 28 57 27 94 69 120 132 9 21 14 148 17 438 l4 407 -126 0 -126 0 0 -407
c0 -225 -4 -414 -9 -421 -5 -8 -21 -12 -37 -10 l-29 3 -3 418 -2 417 -126 0
-126 0 4 -407z"/>
<path d="M3200 2566 l0 -496 120 0 120 0 0 199 0 198 89 5 c66 4 99 11 128 28
65 36 77 67 81 207 8 219 -11 277 -103 323 -47 23 -61 25 -242 29 l-193 3 0
-496z m320 304 c17 -17 20 -33 20 -103 0 -100 -14 -127 -66 -127 l-34 0 0 125
0 125 30 0 c17 0 39 -9 50 -20z"/>
<path d="M5770 2720 l0 -290 265 0 265 0 0 290 0 290 -265 0 -265 0 0 -290z"/>
</g>
</svg>
